#!OML:ASF E:\emotionWalksFemale\Project 1\Capture day 1\Session 1\Female1.ASF
:FULLY-SPECIFIED
:DEGREES
610
root 9.81124 15.6144 -25.4332 177.233 -14.1913 -177.548
lowerback 7.52661 0.207059 0.720034
upperback -4.21241 0.379323 1.16342
thorax -8.68827 0.151005 0.775175
lowerneck -9.1932 -5.15593 -10.4369
upperneck 28.4623 -10.9455 10.4455
head 11.9702 -5.80724 4.0475
rclavicle 2.91157e-014 -1.88845e-015
rhumerus -41.5934 5.9954 -81.0087
rradius 34.4029
rwrist 11.9675
rhand 1.51547 -55.1912
rfingers 7.12502
rthumb 27.0411 -83.2753
lclavicle 2.91157e-014 -1.88845e-015
lhumerus -47.7659 -0.836065 80.8432
lradius 33.2693
lwrist -18.8489
lhand 2.27281 -32.3457
lfingers 7.12502
lthumb 27.7655 -4.37627
rfemur -4.07412 21.1738 29.2876
rtibia 9.21104
rfoot -6.13996 -35.1868
rtoes 17.589
lfemur -4.80481 -2.54728 -17.7017
ltibia 63.0839
lfoot 9.68336 -1.72645
ltoes -16.1488
611
root 9.82327 15.6189 -25.5462 177.158 -14.2127 -177.139
lowerback 7.55385 0.335694 1.27718
upperback -4.26285 0.612594 1.1765
thorax -8.75583 0.22995 0.441529
lowerneck -8.96196 -5.26325 -10.5499
upperneck 28.5465 -11.1749 10.4986
head 11.9975 -5.93725 4.05888
rclavicle -4.59627e-014 -8.27441e-015
rhumerus -41.4158 6.15256 -81.0443
rradius 34.7499
rwrist 12.249
rhand 2.02522 -55.1898
rfingers 7.12502
rthumb 27.5287 -83.1971
lclavicle -4.59627e-014 -8.27441e-015
lhumerus -47.7565 -1.70195 80.9305
lradius 33.7062
lwrist -16.9257
lhand 0.958885 -32.6509
lfingers 7.12502
lthumb 26.5085 -4.48539
rfemur -3.57153 21.1231 30.0267
rtibia 9.05637
rfoot -6.72346 -35.1885
rtoes 18.0655
lfemur -6.28286 -2.43687 -17.1738
ltibia 64.5744
lfoot 8.00324 -1.5759
ltoes -17.414
612
root 9.83403 15.6207 -25.6664 177.083 -14.2814 -176.827
lowerback 7.32201 0.401362 1.59573
upperback -4.09741 0.733697 1.22357
thorax -8.43728 0.275083 0.294812
lowerneck -9.42591 -5.55738 -10.7487
upperneck 28.839 -11.5703 10.4849
head 12.2797 -6.1159 4.01471
rclavicle 2.74074e-014 1.55425e-014
rhumerus -40.8302 6.21457 -80.9653
rradius 34.9617
rwrist 12.9758
rhand 2.67164 -55.0941
rfingers 7.12502
rthumb 28.1467 -83.0014
lclavicle 2.74074e-014 1.55425e-014
lhumerus -47.4769 -2.17088 80.866
lradius 34.2336
lwrist -15.1421
lhand -0.350915 -32.8545
lfingers 7.12502
lthumb 25.2542 -4.50587
rfemur -2.94157 21.0237 30.7008
rtibia 8.83519
rfoot -7.23649 -35.1791
rtoes 17.7989
lfemur -7.64659 -2.40097 -16.8119
ltibia 65.8891
lfoot 6.16386 -1.49623
ltoes -20.1933
613
root 9.84358 15.6148 -25.7737 177.045 -14.3215 -176.649
lowerback 7.34702 0.457907 1.81303
upperback -4.06514 0.833405 1.21372
thorax -8.41358 0.311601 0.147701
lowerneck -8.87031 -5.26265 -10.5351
upperneck 28.4355 -11.2255 10.7113
head 11.9546 -5.93461 4.13253
rclavicle -2.571e-015 2.19595e-015
rhumerus -40.4547 6.52841 -81.1112
rradius 35.0885
rwrist 12.876
rhand 2.09423 -54.6804
rfingers 7.12502
rthumb 27.5947 -82.6773
lclavicle -2.571e-015 2.19595e-015
lhumerus -47.2456 -2.08566 80.4434
lradius 34.5732
lwrist -14.1097
lhand -1.80851 -33.5563
lfingers 7.12502
lthumb 23.857 -5.0179
rfemur -2.41853 20.9555 31.2192
rtibia 8.77242
rfoot -7.55692 -35.2223
rtoes 17.3169
lfemur -9.01693 -2.34888 -16.6379
ltibia 67.0488
lfoot 4.81621 -1.32907
ltoes -22.0355
614
root 9.85105 15.6075 -25.8677 177.143 -14.2014 -176.613
lowerback 7.72724 0.603169 2.00368
upperback -4.3126 1.05567 1.16222
thorax -8.89942 0.398901 -0.0493614
lowerneck -8.61135 -5.3286 -10.6841
upperneck 28.656 -11.4287 10.7275
head 12.0271 -6.07257 4.14187
rclavicle -1.27719e-014 -6.08778e-016
rhumerus -40.4745 6.89954 -81.2477
rradius 35.1839
rwrist 12.6431
rhand 1.0731 -54.2368
rfingers 7.12502
rthumb 26.6178 -82.3858
lclavicle -1.27719e-014 -6.08778e-016
lhumerus -47.2865 -2.03851 80.1124
lradius 34.7542
lwrist -13.128
lhand -3.30255 -34.3606
lfingers 7.12502
lthumb 22.4236 -5.64221
rfemur -2.25754 21.0674 31.4852
rtibia 9.02276
rfoot -7.68326 -35.2626
rtoes 16.2081
lfemur -10.5173 -2.27532 -16.6407
ltibia 68.0074
lfoot 3.88381 -0.887811
ltoes -20.8735
615
root 9.85698 15.6004 -25.9725 177.125 -14.0247 -176.579
lowerback 7.51218 0.696955 2.05712
upperback -4.13508 1.18296 1.17375
thorax -8.57742 0.464151 -0.0840107
lowerneck -8.63596 -5.37713 -10.6402
upperneck 28.6451 -11.4644 10.6321
head 12.0238 -6.08727 4.09191
rclavicle 1.16475e-016 1.46355e-014
rhumerus -39.7095 7.21852 -81.2955
rradius 34.9251
rwrist 12.9157
rhand 0.368374 -53.7472
rfingers 7.12502
rthumb 25.9432 -81.9968
lclavicle 1.16475e-016 1.46355e-014
lhumerus -46.8935 -1.87401 79.8456
lradius 35.1317
lwrist -11.6947
lhand -4.1194 -34.0872
lfingers 7.12502
lthumb 21.6393 -5.27642
rfemur -2.12329 21.215 31.81
rtibia 9.65381
rfoot -8.24526 -35.305
rtoes 15.5658
lfemur -11.7411 -2.20542 -16.6627
ltibia 68.7229
lfoot 2.66551 -0.628097
ltoes -19.9055
616
root 9.86242 15.5934 -26.0855 176.974 -13.8506 -176.483
lowerback 7.42139 0.777915 2.11654
upperback -3.97975 1.2997 1.23052
thorax -8.3544 0.524001 -0.0731158
lowerneck -8.7152 -5.37683 -10.5646
upperneck 28.7056 -11.4165 10.4672
head 12.0417 -6.06743 4.02195
rclavicle 3.57378e-014 -8.03214e-015
rhumerus -38.984 7.5818 -81.3069
rradius 34.5485
rwrist 13.1247
rhand -0.256969 -53.2866
rfingers 7.12502
rthumb 25.3442 -81.6225
lclavicle 3.57378e-014 -8.03214e-015
lhumerus -46.6488 -1.53923 79.5149
lradius 35.628
lwrist -10.5889
lhand -4.60301 -33.5623
lfingers 7.12502
lthumb 21.1748 -4.69874
rfemur -1.9511 21.3363 32.2857
rtibia 10.6272
rfoot -9.54849 -35.3793
rtoes 16.8569
lfemur -12.7109 -2.0836 -16.6148
ltibia 69.213
lfoot 1.35298 -0.664299
ltoes -19.8182
617
root 9.86422 15.5884 -26.1936 177.008 -13.6259 -176.589
lowerback 7.73993 0.949869 2.26069
upperback -4.23756 1.54771 1.09303
thorax -8.80971 0.623295 -0.341746
lowerneck -8.30438 -5.34637 -10.7153
upperneck 28.8183 -11.5241 10.6316
head 12.0364 -6.15597 4.1066
rclavicle 6.32104e-014 1.57785e-014
rhumerus -38.9947 7.66126 -81.3493
rradius 34.5062
rwrist 13.5052
rhand -0.753833 -53.1841
rfingers 7.12502
rthumb 24.8681 -81.5866
lclavicle 6.32104e-014 1.57785e-014
lhumerus -46.9832 -1.49975 79.1132
lradius 36.1638
lwrist -10.0505
lhand -5.26844 -33.3108
lfingers 7.12502
lthumb 20.5355 -4.37695
rfemur -1.91176 20.8581 32.4894
rtibia 11.6234
rfoot -10.9882 -34.8309
rtoes 18.3876
lfemur -13.7809 -1.98261 -16.8559
ltibia 69.4787
lfoot 0.0895958 -0.532592
ltoes -20.0648
618
root 9.86451 15.5778 -26.2954 177.054 -13.3518 -176.808
lowerback 7.51897 1.03444 2.04859
upperback -4.06673 1.63027 1.05745
thorax -8.49689 0.682339 -0.26807
lowerneck -8.2752 -5.33461 -10.7108
upperneck 28.7129 -11.4656 10.6049
head 11.9781 -6.12533 4.10514
rclavicle -5.16126e-014 -6.48535e-015
rhumerus -38.2304 7.94376 -81.3434
rradius 34.6883
rwrist 13.9287
rhand -0.179413 -53.7871
rfingers 7.12502
rthumb 25.4185 -82.1125
lclavicle -5.16126e-014 -6.48535e-015
lhumerus -46.6078 -0.836079 78.6074
lradius 36.4505
lwrist -9.80363
lhand -5.87401 -32.7791
lfingers 7.12502
lthumb 19.9535 -3.78351
rfemur -1.86995 20.3216 32.5171
rtibia 12.481
rfoot -11.4652 -34.1817
rtoes 16.8159
lfemur -14.757 -1.94359 -17.2752
ltibia 69.5616
lfoot -1.33036 -0.298413
ltoes -20.7426
619
root 9.8658 15.5585 -26.3961 176.887 -13.0525 -176.809
lowerback 7.807 1.17743 2.22466
upperback -4.08261 1.84752 0.96628
thorax -8.67091 0.773907 -0.50184
lowerneck -7.92525 -5.33496 -10.8564
upperneck 28.4981 -11.5207 10.8371
head 11.853 -6.15762 4.21912
rclavicle 3.78498e-014 7.25564e-015
rhumerus -37.9788 7.80455 -81.3595
rradius 35.0431
rwrist 14.1857
rhand 0.815778 -54.6242
rfingers 7.12502
rthumb 26.3715 -82.8104
lclavicle 3.78498e-014 7.25564e-015
lhumerus -46.482 -0.39883 78.0904
lradius 36.6766
lwrist -9.62174
lhand -6.48234 -32.4466
lfingers 7.12502
lthumb 19.3686 -3.39121
rfemur -1.61564 20.2593 32.8349
rtibia 13.2297
rfoot -11.6608 -33.8691
rtoes 14.0294
lfemur -15.5482 -1.90773 -17.4219
ltibia 69.5541
lfoot -2.94382 -0.22344
ltoes -20.9745
620
root 9.86654 15.5379 -26.4956 176.69 -12.7817 -176.634
lowerback 8.0518 1.27709 2.47838
upperback -4.07889 2.02176 0.998428
thorax -8.79992 0.842913 -0.642313
lowerneck -7.74383 -5.30102 -10.8776
upperneck 28.4037 -11.4877 10.8886
head 11.7782 -6.14782 4.25212
rclavicle 1.43498e-014 3.18055e-015
rhumerus -37.6743 7.97966 -81.4105
rradius 35.2205
rwrist 14.1706
rhand 0.646181 -54.8341
rfingers 7.12502
rthumb 26.2092 -83.0444
lclavicle 1.43498e-014 3.18055e-015
lhumerus -46.4941 0.330473 77.5675
lradius 37.1028
lwrist -9.66455
lhand -7.40424 -32.6445
lfingers 7.12502
lthumb 18.482 -3.50252
rfemur -1.25866 20.297 33.3692
rtibia 13.8421
rfoot -12.3846 -33.6892
rtoes 13.2413
lfemur -16.3993 -1.93515 -17.3649
ltibia 69.4502
lfoot -4.72805 -0.059218
ltoes -20.9863
621
root 9.86796 15.5196 -26.5908 176.559 -12.5169 -176.434
lowerback 7.98286 1.37276 2.78719
upperback -3.83659 2.18421 1.00816
thorax -8.48184 0.913968 -0.825306
lowerneck -7.84101 -5.39543 -10.814
upperneck 28.09 -11.5339 10.9462
head 11.682 -6.12805 4.25107
rclavicle 1.10139e-014 2.45002e-014
rhumerus -36.8119 8.28852 -81.5274
rradius 35.2121
rwrist 13.9221
rhand 0.232958 -54.8008
rfingers 7.12502
rthumb 25.8135 -83.0693
lclavicle 1.10139e-014 2.45002e-014
lhumerus -45.8924 1.47961 76.856
lradius 37.1864
lwrist -10.1093
lhand -8.42418 -33.1421
lfingers 7.12502
lthumb 17.5007 -3.90988
rfemur -0.999736 19.9935 33.8669
rtibia 14.339
rfoot -12.7016 -33.3217
rtoes 12.485
lfemur -17.2988 -1.94851 -17.3055
ltibia 69.198
lfoot -6.22017 0.319367
ltoes -23.3132
622
root 9.8698 15.5065 -26.6872 176.51 -12.252 -176.372
lowerback 8.16171 1.45507 2.8838
upperback -3.89392 2.31329 1.00565
thorax -8.64113 0.967357 -0.907352
lowerneck -7.47874 -5.37693 -10.7516
upperneck 27.8086 -11.4814 10.8966
head 11.4832 -6.11287 4.23792
rclavicle -7.66563e-015 -9.24349e-015
rhumerus -36.5458 8.60868 -81.7088
rradius 35.3235
rwrist 13.8327
rhand 0.441586 -55.0221
rfingers 7.12502
rthumb 26.0133 -83.2614
lclavicle -7.66563e-015 -9.24349e-015
lhumerus -45.7532 2.8691 75.9847
lradius 37.0764
lwrist -10.7771
lhand -9.02195 -33.5513
lfingers 7.12502
lthumb 16.9253 -4.2688
rfemur -0.880899 19.6632 34.1776
rtibia 14.9574
rfoot -12.8526 -32.9555
rtoes 11.266
lfemur -18.2392 -1.98 -17.4059
ltibia 68.7851
lfoot -7.18135 0.728594
ltoes -26.078
623
root 9.87048 15.4992 -26.7863 176.568 -11.9902 -176.485
lowerback 8.23063 1.55411 2.82708
upperback -3.91174 2.44089 0.969143
thorax -8.69704 1.03075 -0.936173
lowerneck -7.66918 -5.5311 -10.8667
upperneck 27.9302 -11.6183 10.705
head 11.584 -6.19265 4.16024
rclavicle 3.33151e-014 -6.95746e-016
rhumerus -36.1301 8.90332 -81.8186
rradius 35.3455
rwrist 13.7824
rhand 0.707131 -55.2721
rfingers 7.12502
rthumb 26.2675 -83.4738
lclavicle 3.33151e-014 -6.95746e-016
lhumerus -45.6032 4.08835 75.3153
lradius 37.1528
lwrist -11.2392
lhand -9.26324 -33.6582
lfingers 7.12502
lthumb 16.693 -4.35599
rfemur -0.835682 19.5468 34.2874
rtibia 15.6484
rfoot -13.0221 -32.7341
rtoes 9.44202
lfemur -19.3062 -2.23927 -17.6683
ltibia 68.1458
lfoot -8.04642 0.980542
ltoes -22.7966
624
root 9.87069 15.4846 -26.8853 176.594 -11.5972 -176.575
lowerback 8.12443 1.721 2.87842
upperback -3.77251 2.66222 0.896721
thorax -8.47036 1.14092 -1.06941
lowerneck -7.3402 -5.42925 -10.8967
upperneck 27.3819 -11.4093 10.9154
head 11.2915 -6.0711 4.28247
rclavicle 6.58971e-014 2.66371e-014
rhumerus -35.4385 8.98083 -81.8425
rradius 35.3562
rwrist 13.853
rhand 1.09461 -55.4188
rfingers 7.12502
rthumb 26.6384 -83.5647
lclavicle 6.58971e-014 2.66371e-014
lhumerus -45.3588 4.76041 74.9792
lradius 37.5593
lwrist -11.0853
lhand -9.54501 -33.5637
lfingers 7.12502
lthumb 16.4218 -4.23882
rfemur -0.742085 19.5215 34.4321
rtibia 16.2802
rfoot -13.0786 -32.4818
rtoes 7.67985
lfemur -20.0803 -2.26518 -17.9453
ltibia 67.4567
lfoot -9.28672 1.58036
ltoes -21.9288
